<svg width="512" height="535" viewBox="0 0 512 535" fill="none" xmlns="http://www.w3.org/2000/svg">
<path d="M391.923 453.726C393.489 476.465 373.363 494.673 350.898 490.84L98.5613 447.772C82.5488 445.039 70.4874 431.698 69.3738 415.489L50.5736 141.778C49.0112 119.031 69.1523 100.824 91.6201 104.673L343.922 147.895C359.923 150.636 371.971 163.97 373.087 180.168L391.923 453.726Z" fill="#403BA5"/>
<path fill-rule="evenodd" clip-rule="evenodd" d="M371.636 487.496C365.4 490.44 358.199 491.596 350.741 490.322L98.9594 447.308C82.9298 444.569 70.864 431.201 69.774 414.972L51.3939 141.302C50.7375 131.526 54.0877 122.594 59.9056 115.894L59.8856 115.602L32.597 134.681L32.6129 134.929C24.7057 141.834 19.8625 152.23 20.6402 163.808L39.0203 437.479C40.1102 453.708 52.176 467.076 68.2057 469.814L319.987 512.829C331.209 514.746 341.852 511.161 349.495 504.255L371.636 487.496Z" fill="#F2F1FF"/>
<path fill-rule="evenodd" clip-rule="evenodd" d="M421.678 450.06C415.154 453.476 407.467 454.896 399.487 453.532L147.706 410.517C131.676 407.779 119.611 394.411 118.521 378.182L100.141 104.511C99.4839 94.7359 102.834 85.8037 108.652 79.1036L108.646 79.0293L85.8892 94.7771C84.956 95.3607 84.0511 95.9869 83.1779 96.6532L81.8273 97.5878L81.8379 97.7279C73.6481 104.627 68.5931 115.207 69.3862 127.017L87.7663 400.687C88.8563 416.916 100.922 430.284 116.952 433.023L368.732 476.037C379.493 477.876 389.719 474.658 397.281 468.303L422.035 450.123L421.678 450.06Z" fill="#F2F1FF"/>
<path d="M441.187 416.445C442.753 439.184 422.627 457.394 400.162 453.559L147.825 410.491C131.812 407.758 119.751 394.418 118.637 378.208L99.8372 104.498C98.2748 81.7511 118.416 63.544 140.884 67.393L393.186 110.615C409.186 113.356 421.235 126.689 422.35 142.889L441.187 416.445Z" fill="#403BA5"/>
<path fill-rule="evenodd" clip-rule="evenodd" d="M471.606 412.791C464.904 416.538 456.896 418.147 448.566 416.723L196.785 373.708C180.755 370.97 168.69 357.602 167.6 341.372L149.22 67.7025C148.334 54.5134 154.742 42.8585 164.664 36.1511L164.654 35.999L134.373 58.3177L134.375 58.3472C124.188 65.0018 117.565 76.8142 118.464 90.209L136.845 363.879C137.935 380.109 150 393.477 166.03 396.215L417.811 439.23C429.108 441.161 439.818 437.514 447.474 430.519L471.712 412.811L471.606 412.791Z" fill="#F2F1FF"/>
<path d="M489.601 379.668C491.126 402.39 471.009 420.557 448.567 416.723L196.786 373.708C180.756 370.969 168.69 357.601 167.6 341.372L149.22 67.702C147.694 44.9816 167.813 26.8141 190.255 30.648L442.036 73.6627C458.064 76.4012 470.131 89.7694 471.222 105.998L489.601 379.668Z" fill="#403BA5"/>
</svg>