<svg width="1024" height="1024" viewBox="0 0 1024 1024" fill="none" xmlns="http://www.w3.org/2000/svg">
<path d="M401.548 136.486C462.549 75.4847 561.451 75.4849 622.452 136.486L887.513 401.548C948.511 462.549 948.511 561.45 887.513 622.452L622.452 887.513C561.451 948.51 462.549 948.51 401.547 887.513L136.486 622.452C75.4849 561.45 75.4851 462.549 136.486 401.547L401.548 136.486Z" fill="#C1BEFE"/>
<path d="M448.655 288.994C498.136 218.327 595.537 201.153 666.204 250.635L860.671 386.803C931.336 436.284 948.51 533.684 899.028 604.352L762.863 798.819C713.382 869.489 615.981 886.662 545.315 837.179L350.846 701.011C280.179 651.53 263.006 554.129 312.487 483.462L448.655 288.994Z" fill="#857FFC"/>
<path d="M518.431 465.564C540.76 382.235 626.411 332.784 709.74 355.112L806.284 380.981C889.613 403.308 939.069 488.961 916.74 572.29L890.871 668.833C868.543 752.163 782.888 801.614 699.559 779.286L603.015 753.417C519.686 731.089 470.235 645.437 492.562 562.107L518.431 465.564Z" fill="#4747E3"/>
</svg>